PathFileType	4	(X/Y/Z)	3_coords_data.trc
DataRate	CameraRate	NumFrames	NumMarkers	Units	OrigDataRate	OrigDataStartFrame	OrigNumFrames
30.0	30.0	9	21	m	30.0	30	49
Frame#	Time	THUMB_TIP	THUMB_IP	THUMB_MCP	THUMB_CMC	INDEX_TIP	INDEX_DIP	INDEX_PIP	INDEX_MCP	MIDDLE_TIP	MIDDLE_DIP	MIDDLE_PIP	MIDDLE_MCP	RING_TIP	RING_DIP	RING_PIP	RING_MCP	PINKY_TIP	PINKY_DIP	PINKY_PIP	PINKY_MCP	WRIST
X1	Y1	Z1	X2	Y2	Z2	X3	Y3	Z3	X4	Y4	Z4	X5	Y5	Z5	X6	Y6	Z6	X7	Y7	Z7	X8	Y8	Z8	X9	Y9	Z9	X10	Y10	Z10	X11	Y11	Z11	X12	Y12	Z12	X13	Y13	Z13	X14	Y14	Z14	X15	Y15	Z15	X16	Y16	Z16	X17	Y17	Z17	X18	Y18	Z18	X19	Y19	Z19	X20	Y20	Z20	X21	Y21	Z21
28	0.9666666666666625	0.4931260246975452	-0.01089289357107015	-0.17081880907385932	0.48933575563160114	-0.01598554628255422	-0.1487349065933654	0.47587347051415985	-0.02338189841339855	-0.12166313430979914	0.4732888573745272	-0.029696826916127073	-0.0775799010694404	0.5686664012443232	0.03253994670155902	-0.1713769841336824	0.5560436759603575	0.025231563785862776	-0.1606413264657474	0.5384732615416121	0.015834390347348792	-0.14531215487951904	0.5100347464103121	-0.00039734064078111864	-0.1180831655435961	0.5882265321700529	0.044663123815504746	-0.14995556528986342	0.5748448571429352	0.03711257490541209	-0.14036807424032854	0.553071472484144	0.02562107739165742	-0.12477080667861468	0.5202937381699302	0.006992454222791267	-0.10079701988847273	0.6025571491846123	0.03802127154871404	-0.10781395682211076	0.586324451769487	0.0329493595957947	-0.10183271583291637	0.5636703625431926	0.02608071762057329	-0.09410005925556053	0.5281824219661918	0.01001013333751577	-0.08328048308990565	0.6014637697484221	0.022712684313452414	-0.0667254031506847	0.5846856387237007	0.019746326222751076	-0.06508374575798276	0.5641269685382391	0.01566488390291121	-0.0638610733590016	0.5305631381323626	0.0024620363765195385	-0.0640548688192426	0.4622830810018608	-0.023011742144276925	-0.051989820119430985
29	0.9999999999999956	0.49279461199499675	-0.010800285886711225	-0.17086991515469852	0.4891238222527112	-0.01594386609158993	-0.14877763402884114	0.47575936765490245	-0.02336260799235823	-0.1216635487240979	0.47329011542708954	-0.029703958713635625	-0.07757749577687656	0.5683389724719211	0.032758761043582996	-0.1715905367891966	0.5558282577799286	0.025325583039187194	-0.1608095404228801	0.538389684148509	0.015793568843674333	-0.14541321982092792	0.5100928583773912	-0.0005094958715911035	-0.11807943438661839	0.5880997764238902	0.04473985165950367	-0.15006468690285585	0.5747739149636241	0.03711817321046773	-0.14045576219916006	0.5530696871679156	0.025540543548303374	-0.12482583778482703	0.5203483743910977	0.006872745306358952	-0.10080549390802707	0.6025580579962478	0.03810714669489046	-0.10777238696817915	0.5863462397473722	0.03295973876047553	-0.10179901768257932	0.5637116836639398	0.026008768828358564	-0.09408274481877005	0.5282299323340571	0.009907474665422522	-0.08328855736241247	0.6014554568253594	0.022782279921410686	-0.06667275159187169	0.5846839642863808	0.019767781543397422	-0.0650510742059714	0.5641354087421282	0.015630111525561596	-0.0638475083090343	0.5305877048024927	0.0023868646918460135	-0.06407427841255348	0.4622830810018608	-0.023011742144276925	-0.051989820119430985
30	1.0333333333333288	0.49218548512233407	-0.010663452152905317	-0.17097930979379017	0.48876561363021154	-0.015885837129474445	-0.1488652605459958	0.475575104771805	-0.023317685499514407	-0.12166970749294997	0.47326178648187056	-0.029723575952738557	-0.07758452714863528	0.5678801730704467	0.033104268188287156	-0.1718533921861558	0.5555277106860381	0.025491112722582532	-0.16101565548070013	0.5382780799823973	0.01574801960797456	-0.14553882731249684	0.5101937564697728	-0.000692012062127878	-0.11806825714141589	0.5878325757002217	0.04501304700915343	-0.15020881935183494	0.5746175609307257	0.037235674873028035	-0.14057160672067337	0.5530599959980249	0.02545160732399998	-0.12489306418087265	0.5204510740035756	0.0066802728941408596	-0.10080067677152049	0.602539265342712	0.03835839191463997	-0.107664197620441	0.5863689297345334	0.033046322925956106	-0.10172263474706045	0.5637896729453478	0.02588594103293862	-0.09403588816647335	0.5283236673887753	0.009718117634502366	-0.08328950410400099	0.6014365128957831	0.02296726846950059	-0.06643288472844966	0.5846820556655825	0.01982137166266673	-0.06488643841443487	0.5641543598723737	0.015561954450241	-0.06375370303846756	0.530644993983931	0.002224331202234975	-0.06409083038640273	0.4622830810018609	-0.023011742144276925	-0.051989820119430985
31	1.0666666666666622	0.4915438563453647	-0.010636633153307207	-0.1711214984431389	0.4883833454634372	-0.015888741210101198	-0.1489759225435382	0.4753700799428806	-0.02330245066626435	-0.1216901784160439	0.4731976755690681	-0.02975267155159611	-0.07760429280888986	0.5675517967421397	0.033397587141722695	-0.17197256381598863	0.5552949210649007	0.02562493335531768	-0.1611395193801251	0.5381861434967873	0.015654091981483265	-0.1456513985960322	0.5102534549450346	-0.0009000379478306675	-0.11809487874039404	0.5874685212278448	0.0454391405883543	-0.15034449415070045	0.5743779645336127	0.03745232371906437	-0.14070872320429872	0.5530003797301849	0.025380603148266623	-0.1250026103677997	0.520538079550713	0.00645284680347713	-0.10083471786948428	0.6024623191534378	0.03870069355442607	-0.10760906748355192	0.586348539502791	0.03318077088411875	-0.10170342957692147	0.5638435175293318	0.0257610137038341	-0.09404502449755031	0.5284095412178518	0.009496180018766509	-0.08333944922320985	0.6013817266922372	0.023300358692932455	-0.06612486548047847	0.5846582724345076	0.019945949319392753	-0.06468472123619867	0.5641691596310298	0.015475652159003372	-0.06367243727199862	0.5307074616446071	0.0020233205183470826	-0.0641551300265018	0.4622830810018609	-0.023011742144276925	-0.051989820119430985
32	1.0999999999999952	0.49126406063304295	-0.010842479651498205	-0.1712327154446816	0.48817786891801673	-0.016005362857910876	-0.14905569901561605	0.4751949798296309	-0.023306737429347857	-0.12172523029870141	0.473103980722972	-0.029775208789839747	-0.07763808250034127	0.5677844117995122	0.03340681600985418	-0.17168450087581105	0.5554148355332492	0.025661572668714716	-0.16096047231469474	0.5382260836011987	0.0156441290005912	-0.14559142997711216	0.5102101050762033	-0.0009472770119424156	-0.1181420895876919	0.5873519617379853	0.045725175162591336	-0.1502665707135229	0.5742666342332503	0.037663483274256615	-0.14068620913415736	0.552922168230575	0.025460552440930595	-0.12503655098652683	0.5205196787630602	0.006422976609609554	-0.10087465321805067	0.60235752289139	0.038934471475497556	-0.10766036001521673	0.5862688354685305	0.03334387771220804	-0.10175278873901583	0.5638101381487025	0.02578997941337824	-0.09408953132540337	0.5284030786220035	0.009467209809575716	-0.08338307709750953	0.6012925461865457	0.023678699324212293	-0.0660137385753663	0.584599697925351	0.020152952436316762	-0.06462884658996637	0.5641506535280054	0.01549394861059783	-0.06365813263244541	0.5307112247570456	0.001988796160536599	-0.0642048608761927	0.462283081001861	-0.023011742144276925	-0.051989820119430985
33	1.1333333333333284	0.4918830596253616	-0.011311121583996608	-0.1712063371734439	0.4884905761919047	-0.01625756986846305	-0.14902472980330905	0.4752822774339581	-0.023397035643802355	-0.12175957122384007	0.473039820953429	-0.02977115314604295	-0.07766612482870594	0.5687597994376167	0.03270717167135806	-0.17105341991496703	0.5560302719878469	0.025332833536819477	-0.16049035842773485	0.5384425130352912	0.015670634531505523	-0.14534696123924018	0.5100043924466638	-0.0007261901189623554	-0.11821665470266557	0.5878235731957168	0.04522049670442896	-0.15003823354861695	0.5745495309471449	0.03738763680963142	-0.14052791766261186	0.5529540604482102	0.025494948558065	-0.12498413530178687	0.5203265406259753	0.006692258190003186	-0.10094142941886941	0.6023289367567178	0.03857563583716006	-0.10800906489522122	0.5861902964356469	0.03320742771655294	-0.10203188912727273	0.5636855830723767	0.02589419885184807	-0.09427079777299152	0.5282383530007946	0.009731542266678384	-0.08345491841150637	0.6012462381025616	0.023701812174690806	-0.06650433524966187	0.5845497392938398	0.02024346784570874	-0.06499875163107843	0.5640974313226629	0.015628392187870932	-0.06389593962326917	0.5306213541729116	0.0022080623958113943	-0.06425712923588306	0.4622830810018608	-0.023011742144276925	-0.051989820119430985
34	1.1666666666666616	0.4936336064880781	-0.01195634367931675	-0.17090413596924808	0.489524943353449	-0.016632896803503994	-0.14878516813341097	0.4757446459034145	-0.02359883412236896	-0.12175927093353589	0.4730772860422935	-0.029745382010823218	-0.07765717188568766	0.5703552738679373	0.031165678341970815	-0.17013643413990037	0.5570522825564888	0.024525371265555762	-0.1597954117485486	0.5387863757251333	0.015672524059801685	-0.14496323129590383	0.5095842253354349	-0.0002055010264525592	-0.11834070650996886	0.5887262499485894	0.04398416792539317	-0.14973005711411802	0.5750857848608808	0.03671059943430699	-0.1402943317261851	0.5529912720187296	0.025572528212734258	-0.1248935063674198	0.5199077185176479	0.007317822556000553	-0.10105253050385471	0.6023491219353121	0.037560240054698935	-0.10865281992487275	0.5860854353051733	0.032766115788066874	-0.10252837140172061	0.5634263238074365	0.026142309619103687	-0.09459932120834075	0.527890105244467	0.01034485183203282	-0.08353865523785864	0.6012520416512597	0.023227898911157063	-0.06763838592950111	0.584513282948605	0.020142581658424308	-0.0658232345462027	0.564006735057682	0.015869969748894985	-0.06439554407981002	0.5304180875877702	0.00272926836069598	-0.06430510532607542	0.462283081001861	-0.023011742144276925	-0.05198982011943093
35	1.1999999999999948	0.4965247822028763	-0.012688248018826065	-0.1702390797635731	0.4912693180394688	-0.017076102609730137	-0.14830447631340282	0.4765923363610154	-0.02389739838333571	-0.12171733406796131	0.47322038675609923	-0.029678387748941937	-0.07761404487297441	0.5723342303025915	0.028809664823247094	-0.1688834682065945	0.5583020290921162	0.023297918484197044	-0.15884763333934498	0.5391210540771301	0.01574421203339138	-0.1444586949028398	0.5089016727450497	0.0006517534275893855	-0.11852333720068986	0.5898630103777961	0.04213455913698516	-0.14930635972932932	0.5757106517068009	0.0357741993157662	-0.13996523736677935	0.5529170023294636	0.025842259013719282	-0.12475946017850026	0.5192202896494519	0.008363778569986935	-0.10119715560235981	0.6022705147162911	0.036018829776270356	-0.10952646800754001	0.5858383556693962	0.032156080553869426	-0.103196908978477	0.562958239874878	0.02667191002032232	-0.09503577218337178	0.5273108982034822	0.011385504966399562	-0.08362027016680756	0.601185234164422	0.02238459268043025	-0.06936736933528787	0.5843930572202747	0.019986441420279166	-0.06707135888019877	0.5638048992029981	0.016364638840453916	-0.06511628483341148	0.5300590558553511	0.0036583303677734103	-0.06430929489967502	0.4622830810018609	-0.023011742144276925	-0.05198982011943104
36	1.233333333333328	0.5004934905655383	-0.013423763664463628	-0.16909675474278013	0.49368333614311044	-0.017517636060612962	-0.1475360959971218	0.4778383589272779	-0.024233209458081162	-0.12160044927349117	0.47349569704198347	-0.029561476124714936	-0.0775250495353238	0.5745411772401559	0.025495849161581985	-0.1671672176701069	0.5596962627129322	0.021552010621769147	-0.15757166399919714	0.5394737968081855	0.015823127536341186	-0.14377885412140712	0.5080348443814108	0.0018044957012813834	-0.11870483717597036	0.5912074156769724	0.03939194790731004	-0.14866741983624637	0.5764439122524311	0.03435828381402939	-0.13946409476160215	0.552800226384767	0.026161636869286742	-0.12452419357536737	0.518329365306916	0.009767915078717326	-0.10130451348702618	0.6020429479477023	0.03380427447653622	-0.11048284698912747	0.5854457112140092	0.03129175584740984	-0.10390873237618958	0.5623359638927208	0.027384386707944852	-0.09549136793390972	0.5265479161698995	0.012774124140238707	-0.0836390811549052	0.6009295449135454	0.021145306416265552	-0.07155940827585061	0.5841256883248397	0.01977154051791541	-0.0686025229208298	0.5634676203037202	0.017102567275720904	-0.06596949681627823	0.5295682877853746	0.004908785276668826	-0.06422869631931222	0.4622830810018608	-0.023011742144276925	-0.051989820119430985
